<svg xmlns="http://www.w3.org/2000/svg" viewBox="0 0 299.23528 171.29628">
  <title>frozen_1</title>
  <g id="Livello_2" data-name="Livello 2">
    <g id="Livello_1-2" data-name="Livello 1">
      <g>
        <path d="M297.36128,24.89838a6.74138,6.74138,0,0,1,1.374.1484v-8.7285a6.73438,6.73438,0,0,1-1.374.1485c-4.2149,0-7.6328-3.9083-7.6328-8.7286a9.39778,9.39778,0,0,1,2.06252-5.9546H5.415a8.94728,8.94728,0,0,1,4.09179,7.7286c0,4.8203-3.418,8.728-7.63279,8.728A6.74076,6.74076,0,0,1,.5,18.09178v8.7285a6.73377,6.73377,0,0,1,1.374-.1485c4.21479,0,7.63279,3.9077,7.63279,8.7285,0,4.8204-3.418,8.7281-7.63279,8.7281A6.73377,6.73377,0,0,1,.5,43.97988v8.729a6.74076,6.74076,0,0,1,1.374-.1484c4.21479,0,7.63279,3.9077,7.63279,8.728s-3.418,8.7281-7.63279,8.7281A6.73377,6.73377,0,0,1,.5,69.86808v8.729a6.73373,6.73373,0,0,1,1.374-.1484c4.21479,0,7.63279,3.9077,7.63279,8.7285,0,4.8198-3.418,8.728-7.63279,8.728A6.73373,6.73373,0,0,1,.5,95.75678v8.7285a6.73373,6.73373,0,0,1,1.374-.1484c4.21479,0,7.63279,3.9077,7.63279,8.7285,0,4.8203-3.418,8.728-7.63279,8.728A6.74076,6.74076,0,0,1,.5,121.645v8.7285a6.73373,6.73373,0,0,1,1.374-.1484c4.21479,0,7.63279,3.9077,7.63279,8.7285,0,4.8203-3.418,8.728-7.63279,8.728a6.74076,6.74076,0,0,1-1.374-.1484v8.7285a6.73377,6.73377,0,0,1,1.374-.1485c4.21479,0,7.63279,3.9082,7.63279,8.7286a9.3976,9.3976,0,0,1-2.0625,5.9545h286.376a8.94674,8.94674,0,0,1-4.0918-7.7285c0-4.8203,3.4179-8.728,7.6328-8.728a6.74138,6.74138,0,0,1,1.374.1484v-8.7285a6.73438,6.73438,0,0,1-1.374.1485c-4.2149,0-7.6328-3.9078-7.6328-8.7286,0-4.8203,3.4179-8.728,7.6328-8.728a6.73438,6.73438,0,0,1,1.374.1485V119.871a6.73438,6.73438,0,0,1-1.374.1485c-4.2149,0-7.6328-3.9077-7.6328-8.728s3.4179-8.7281,7.6328-8.7281a6.73438,6.73438,0,0,1,1.374.1485v-8.729a6.74138,6.74138,0,0,1-1.374.1484c-4.2149,0-7.6328-3.9077-7.6328-8.7285,0-4.8198,3.4179-8.728,7.6328-8.728a6.73434,6.73434,0,0,1,1.374.1484v-8.7285a6.73434,6.73434,0,0,1-1.374.1484c-4.2149,0-7.6328-3.9077-7.6328-8.7285,0-4.8203,3.4179-8.728,7.6328-8.728a6.73434,6.73434,0,0,1,1.374.1484v-8.7285a6.73434,6.73434,0,0,1-1.374.1484c-4.2149,0-7.6328-3.9077-7.6328-8.7285C289.72848,28.80608,293.14638,24.89838,297.36128,24.89838Z" fill="#76fa5a" stroke="#76fa5a" stroke-miterlimit="10"/>
        <path d="M9.664,86.49189C43.55535,84.01861,142.26187,30.7792,149.57195,1.584h0c6.89373,29.0937,106.1405,82.01268,140,84.002l-.00065.09013c-33.89137,2.47328-132.46708,55.71269-139.77716,84.90785l-.09013.00064C142.81028,141.491,43.52283,88.57137,9.66333,86.582" fill="#f2f2f2" stroke="#0023f5" stroke-miterlimit="10" stroke-width="0.75"/>
        <g>
          <path d="M29.52241,76.01568H49.34468V80.6983H35.5146v3.293H48.6689v4.58691H35.5146V96.209H29.52241Z" fill="#0023f5"/>
          <path d="M70.46186,85.93267A4.42093,4.42093,0,0,1,72.913,87.586a5.17341,5.17341,0,0,1,.86914,3.11328V96.209H67.80366V90.961a2.45925,2.45925,0,0,0-.68164-1.93554,3.1952,3.1952,0,0,0-2.14258-.59961h-7.5625V96.209H51.42475V76.01568H65.50288a20.11859,20.11859,0,0,1,2.5957.15137,10.24888,10.24888,0,0,1,2.20508.53027,5.47906,5.47906,0,0,1,1.74219.99121,4.25745,4.25745,0,0,1,1.10937,1.57032,5.68363,5.68363,0,0,1,.40625,2.2246,4.73318,4.73318,0,0,1-.82617,2.9004A4.30087,4.30087,0,0,1,70.46186,85.93267Zm-5.56445-1.73535a3.79131,3.79131,0,0,0,1.96289-.39941,1.58554,1.58554,0,0,0,.64063-1.46,1.53242,1.53242,0,0,0-.67578-1.4668,4.43221,4.43221,0,0,0-2.09375-.37891H57.41694v3.70508Z" fill="#0023f5"/>
          <path d="M97.40522,93.85357q-3.252,2.68653-9.28515,2.68653-6.03223,0-9.29883-2.68653a9.38815,9.38815,0,0,1-3.26367-7.68652V86.0567a9.38617,9.38617,0,0,1,3.26367-7.68555q3.26659-2.68653,9.29883-2.68652t9.28515,2.68652a9.40606,9.40606,0,0,1,3.25,7.68555v.11035A9.40805,9.40805,0,0,1,97.40522,93.85357Zm-12.30859-2.376a11.07331,11.07331,0,0,0,6.041,0,4.53974,4.53974,0,0,0,1.96875-1.21192,4.89257,4.89257,0,0,0,1.041-1.79785,7.53861,7.53861,0,0,0,.32227-2.30078V86.0567a7.53207,7.53207,0,0,0-.32227-2.29981,4.88469,4.88469,0,0,0-1.041-1.79785,4.53053,4.53053,0,0,0-1.96875-1.21191,11.07305,11.07305,0,0,0-6.041,0A4.58884,4.58884,0,0,0,83.11225,81.959a4.87176,4.87176,0,0,0-1.04687,1.79785,7.53207,7.53207,0,0,0-.32227,2.29981v.11035a7.53861,7.53861,0,0,0,.32227,2.30078,4.8796,4.8796,0,0,0,1.04687,1.79785A4.59821,4.59821,0,0,0,85.09663,91.4776Z" fill="#0023f5"/>
          <path d="M110.06343,91.51177h12.32812V96.209H101.64741V92.36627L113.83686,80.712H101.7978V76.01568h20.44336v3.8291Z" fill="#0023f5"/>
          <path d="M130.4228,91.6358h14.03711V96.209h-19.918V76.01568h19.82031v4.55859H130.4228v3.30665h13.2793v4.22851H130.4228Z" fill="#0023f5"/>
          <path d="M163.19233,76.01568h5.59375V96.209h-6.08984L152.25679,82.834V96.209H146.663V76.01568h6.625l9.90429,12.68652Z" fill="#0023f5"/>
          <path d="M185.122,91.6358h14.03711V96.209h-19.918V76.01568h19.82031v4.55859H185.122v3.30665h13.2793v4.22851H185.122Z" fill="#0023f5"/>
          <path d="M201.36225,76.01568h5.99219V91.51177h13.07227V96.209H201.36225Z" fill="#0023f5"/>
          <path d="M233.20991,96.5401q-5.78613,0-8.81641-1.8252a6.68666,6.68666,0,0,1-3.22265-5.80664h5.75781a3.03575,3.03575,0,0,0,.9375,2.01855,4.66262,4.66262,0,0,0,2.19531,1.09473,15.40774,15.40774,0,0,0,3.39649.31641,10.35246,10.35246,0,0,0,3.79492-.502,1.64748,1.64748,0,0,0,1.16406-1.5498,1.2622,1.2622,0,0,0-.61328-1.15039,6.42764,6.42764,0,0,0-2.19726-.627q-.49512-.082-3.89844-.41309a47.30931,47.30931,0,0,1-5.09571-.70215,7.00958,7.00958,0,0,1-3.54687-1.72949,4.74351,4.74351,0,0,1-1.21875-3.50488v-.01465a5.31043,5.31043,0,0,1,2.71875-4.78614q2.72168-1.67432,7.791-1.67382,5.5078,0,8.375,1.7705a6.39254,6.39254,0,0,1,3.08593,5.37891h-5.73047a2.77083,2.77083,0,0,0-1.64648-2.28027,10.35733,10.35733,0,0,0-4.26367-.68164q-4.3125,0-4.31055,1.76367a1.18834,1.18834,0,0,0,.584,1.08789,6.57837,6.57837,0,0,0,2.18359.60644q.52442.082,3.93945.41993,3.416.33691,5.15235.69531a6.47636,6.47636,0,0,1,3.49218,1.73535,4.91587,4.91587,0,0,1,1.20508,3.52637v.02734a5.53966,5.53966,0,0,1-2.94726,5.083Q238.52534,96.5401,233.20991,96.5401Z" fill="#0023f5"/>
          <path d="M264.62983,96.209l-1.81836-3.95312H252.21968L250.40132,96.209h-6.21289l9.89062-20.19336h7.10742l9.9043,20.19336Zm-10.45508-8.168h6.668l-3.32031-7.21875Z" fill="#0023f5"/>
        </g>
        <g>
          <polygon points="126.733 122.985 122.683 125.017 122.913 120.492 119.728 117.268 124.102 116.088 126.184 112.064 128.659 115.859 133.13 116.596 130.284 120.122 130.966 124.6 126.733 122.985" fill="#0023f5"/>
          <polygon points="149.922 122.985 145.872 125.017 146.102 120.492 142.917 117.268 147.291 116.088 149.373 112.064 151.848 115.859 156.318 116.596 153.473 120.122 154.155 124.6 149.922 122.985" fill="#0023f5"/>
          <polygon points="173.111 122.985 169.061 125.017 169.29 120.492 166.106 117.268 170.48 116.088 172.562 112.064 175.036 115.859 179.507 116.596 176.661 120.122 177.343 124.6 173.111 122.985" fill="#0023f5"/>
        </g>
        <g>
          <polygon points="126.733 57.284 122.683 59.315 122.913 54.79 119.728 51.567 124.102 50.387 126.184 46.362 128.659 50.158 133.13 50.894 130.284 54.42 130.966 58.899 126.733 57.284" fill="#0023f5"/>
          <polygon points="149.922 57.284 145.872 59.315 146.102 54.79 142.917 51.567 147.291 50.387 149.373 46.362 151.848 50.158 156.318 50.894 153.473 54.42 154.155 58.899 149.922 57.284" fill="#0023f5"/>
          <polygon points="173.111 57.284 169.061 59.315 169.29 54.79 166.106 51.567 170.48 50.387 172.562 46.362 175.036 50.158 179.507 50.894 176.661 54.42 177.343 58.899 173.111 57.284" fill="#0023f5"/>
        </g>
      </g>
    </g>
  </g>
</svg>
