<svg xmlns="http://www.w3.org/2000/svg" viewBox="0 0 296.60703 171.3291">
  <title>minecraft</title>
  <g id="Livello_2" data-name="Livello 2">
    <g id="Livello_1-2" data-name="Livello 1">
      <g>
        <path d="M291.38135,35.943c2.88633,0,5.22568-2.836,5.22568-6.333,0-3.4981-2.33935-6.334-5.22568-6.334h-5.0477V13.277h5.0477c2.88633,0,5.22568-2.836,5.22568-6.333,0-3.4981-2.33935-6.334-5.22568-6.334H5.22567C2.33934.61,0,3.44593,0,6.944c0,3.497,2.33934,6.333,5.22567,6.333H9.13424v9.999H5.22567C2.33934,23.276,0,26.11193,0,29.61c0,3.497,2.33934,6.333,5.22567,6.333H9.13424v9.999H5.22567C2.33934,45.942,0,48.77793,0,52.276c0,3.4971,2.33934,6.333,5.22567,6.333H9.13424v9.999H5.22567C2.33934,68.608,0,71.444,0,74.942c0,3.4971,2.33934,6.333,5.22567,6.333H9.13424v9.999H5.22567C2.33934,91.274,0,94.11,0,97.608c0,3.4971,2.33934,6.333,5.22567,6.333H9.13424v9.999H5.22567C2.33934,113.94,0,116.776,0,120.274c0,3.4971,2.33934,6.333,5.22567,6.333H9.13424v9.9991H5.22567C2.33934,136.60613,0,139.442,0,142.94c0,3.4971,2.33934,6.3331,5.22567,6.3331H9.13424v9.999H5.22567C2.33934,159.27213,0,162.108,0,165.60613c0,3.497,2.33934,6.333,5.22567,6.333H291.38135c2.88633,0,5.22568-2.836,5.22568-6.333,0-3.4981-2.33935-6.334-5.22568-6.334h-5.0477v-9.999h5.0477c2.88633,0,5.22568-2.836,5.22568-6.3331,0-3.498-2.33935-6.3339-5.22568-6.3339h-5.0477V126.607h5.0477c2.88633,0,5.22568-2.8359,5.22568-6.333,0-3.498-2.33935-6.334-5.22568-6.334h-5.0477v-9.999h5.0477c2.88633,0,5.22568-2.8359,5.22568-6.333,0-3.498-2.33935-6.334-5.22568-6.334h-5.0477V81.275h5.0477c2.88633,0,5.22568-2.8359,5.22568-6.333,0-3.498-2.33935-6.334-5.22568-6.334h-5.0477V58.609h5.0477c2.88633,0,5.22568-2.8359,5.22568-6.333,0-3.4981-2.33935-6.334-5.22568-6.334h-5.0477V35.943Z" transform="translate(0 -0.61003)" fill="#0023f5"/>
        <polygon points="118.265 150.461 115.697 154.362 113.57 150.204 109.065 148.967 112.362 145.659 112.146 140.994 116.312 143.106 120.682 141.46 119.959 146.074 122.876 149.721 118.265 150.461" fill="#f2f2f2"/>
        <polygon points="143.966 139.509 141.398 143.41 139.271 139.252 134.766 138.016 138.063 134.708 137.847 130.042 142.012 132.155 146.383 130.508 145.66 135.123 148.577 138.769 143.966 139.509" fill="#f2f2f2"/>
        <polygon points="167.167 129.057 164.599 132.958 162.472 128.8 157.967 127.564 161.264 124.256 161.048 119.59 165.214 121.703 169.584 120.056 168.862 124.671 171.778 128.318 167.167 129.057" fill="#f2f2f2"/>
        <polygon points="187.368 115.605 184.801 119.506 182.673 115.348 178.169 114.112 181.465 110.804 181.249 106.138 185.415 108.251 189.785 106.604 189.063 111.219 191.98 114.866 187.368 115.605" fill="#f2f2f2"/>
        <polygon points="206.07 100.653 203.502 104.555 201.374 100.397 196.87 99.16 200.166 95.852 199.951 91.186 204.116 93.299 208.487 91.652 207.764 96.267 210.681 99.914 206.07 100.653" fill="#f2f2f2"/>
        <polygon points="222.771 85.702 220.203 89.603 218.076 85.445 213.571 84.208 216.868 80.9 216.652 76.234 220.817 78.347 225.188 76.7 224.465 81.315 227.382 84.962 222.771 85.702" fill="#f2f2f2"/>
        <polygon points="78.765 98.961 76.197 102.862 74.07 98.704 69.565 97.467 72.862 94.159 72.646 89.494 76.812 91.606 81.182 89.96 80.459 94.574 83.376 98.221 78.765 98.961" fill="#f2f2f2"/>
        <polygon points="95.466 79.009 92.898 82.91 90.771 78.752 86.266 77.516 89.563 74.208 89.347 69.542 93.512 71.655 97.883 70.008 97.16 74.623 100.077 78.269 95.466 79.009" fill="#f2f2f2"/>
        <polygon points="114.167 64.057 111.599 67.958 109.472 63.8 104.967 62.564 108.264 59.256 108.048 54.59 112.214 56.703 116.584 55.056 115.862 59.671 118.778 63.318 114.167 64.057" fill="#f2f2f2"/>
        <polygon points="134.368 50.605 131.801 54.506 129.673 50.348 125.169 49.112 128.465 45.804 128.249 41.138 132.415 43.251 136.785 41.604 136.063 46.219 138.98 49.866 134.368 50.605" fill="#f2f2f2"/>
        <polygon points="156.07 38.653 153.502 42.555 151.374 38.397 146.87 37.16 150.166 33.852 149.951 29.186 154.116 31.299 158.487 29.652 157.764 34.267 160.681 37.914 156.07 38.653" fill="#f2f2f2"/>
        <polygon points="178.771 29.702 176.203 33.603 174.076 29.445 169.571 28.208 172.868 24.9 172.652 20.234 176.817 22.347 181.188 20.7 180.465 25.315 183.382 28.962 178.771 29.702" fill="#f2f2f2"/>
        <ellipse cx="147.56538" cy="86.2363" rx="119.08537" ry="54.31892" transform="matrix(0.86603, -0.5, 0.5, 0.86603, -23.34814, 84.72621)" fill="none" stroke="#fff" stroke-miterlimit="10"/>
        <g>
          <path d="M43.32352,130.35205l7.5039-4.33252L64.427,149.57666l-6.748,3.89648-8.03516-13.916-.29883,19.2207-16.791-9.375L40.597,163.335,34.10672,167.083,20.50516,143.52588l7.39258-4.26758L43.097,147.77246Z" transform="translate(0 -0.61003)" fill="#76fa5a"/>
          <path d="M54.07352,124.14551l6.99023-4.03565L74.66336,143.667l-6.99023,4.03565Z" transform="translate(0 -0.61003)" fill="#76fa5a"/>
          <path d="M83.60867,107.09375l6.52344-3.7666,13.59961,23.55713-7.10156,4.10058-21.1875-8.5708,9.00781,15.603-6.52539,3.7666L64.32547,118.22656l7.72852-4.4624,20.09961,8.12891Z" transform="translate(0 -0.61003)" fill="#76fa5a"/>
          <path d="M110.79227,115.69531l16.373-9.45361,3.08008,5.335L107.011,124.9917,93.40945,101.43457l23.123-13.3501,3.07227,5.31885L103.34305,102.792l2.22656,3.85645,15.49024-8.94336,2.84765,4.9331-15.49023,8.94336Z" transform="translate(0 -0.61003)" fill="#76fa5a"/>
          <path d="M146.50516,102.70312q-6.87891,3.9712-12.48438,2.99805-5.60742-.97266-8.94726-6.75732l-.07422-.12891q-3.33984-5.78466-1.37891-11.12646,1.9629-5.34375,8.8711-9.332,6.34863-3.66432,11.59375-3.16846a10.97387,10.97387,0,0,1,8.41211,5.30957L145.45828,84.561a5.6125,5.6125,0,0,0-4.02343-2.42334,9.52921,9.52921,0,0,0-5.77735,1.58984q-3.82617,2.20825-4.55078,4.9956a7.72455,7.72455,0,0,0,1.082,5.91993l.07422.12841a7.77046,7.77046,0,0,0,4.58789,3.91846q2.76855.769,6.54492-1.41113a9.5228,9.5228,0,0,0,4.35352-4.33447,5.71513,5.71513,0,0,0-.207-4.80909l7.03906-4.06347a12.06014,12.06014,0,0,1,1.51953,5.229,10.50309,10.50309,0,0,1-1.00391,4.96045,15.63465,15.63465,0,0,1-3.27539,4.49463A26.26878,26.26878,0,0,1,146.50516,102.70312Z" transform="translate(0 -0.61003)" fill="#76fa5a"/>
          <path d="M178.136,67.94385a5.96367,5.96367,0,0,1,3.97461.27685,6.98048,6.98048,0,0,1,3.10742,3.04737L188.929,77.6958l-6.97266,4.02637-3.53516-6.12256a3.29914,3.29914,0,0,0-2.09961-1.79785,4.287,4.287,0,0,0-2.90039.74316l-8.82226,5.09326,5.24023,9.07911-6.98828,4.03564L149.2493,69.1958l16.42187-9.48144a27.36338,27.36338,0,0,1,3.13282-1.57227,13.90132,13.90132,0,0,1,2.92773-.86621,7.37313,7.37313,0,0,1,2.69922-.0166,5.72382,5.72382,0,0,1,2.35156,1.08545,7.6178,7.6178,0,0,1,1.97266,2.32177,6.355,6.355,0,0,1,.98828,3.93848A5.79462,5.79462,0,0,1,178.136,67.94385Zm-7.66016,1.72363a5.11829,5.11829,0,0,0,2.02149-1.78857,2.1317,2.1317,0,0,0-.23633-2.13428,2.06549,2.06549,0,0,0-1.77539-1.25635,5.96876,5.96876,0,0,0-2.69727.96777l-8.5332,4.92627,2.49414,4.32276Z" transform="translate(0 -0.61003)" fill="#76fa5a"/>
          <path d="M214.0618,63.186l-4.7832-3.38721-12.35743,7.13428.541,5.83642-7.24609,4.18408-2.06446-30.21826,8.293-4.78711L221.59891,58.835Zm-17.69727-2.4878,7.77735-4.49023-8.73438-6.18408Z" transform="translate(0 -0.61003)" fill="#76fa5a"/>
          <path d="M209.66922,34.313l23.12305-13.3501,3.15429,5.46338-16.13281,9.31445,2.2168,3.84033,15.3457-8.85986,3.08985,5.35108-15.34571,8.85986,5.13867,8.90234-6.99023,4.03565Z" transform="translate(0 -0.61003)" fill="#76fa5a"/>
          <path d="M247.46024,19.7998l-10.10743,5.83545-3.16406-5.47949L261.3782,4.4585,264.54227,9.938l-10.10742,5.83545,10.4375,18.07763-6.97461,4.02637Z" transform="translate(0 -0.61003)" fill="#76fa5a"/>
        </g>
      </g>
    </g>
  </g>
</svg>
