<svg xmlns="http://www.w3.org/2000/svg" viewBox="0 0 298.23528 169.0127">
  <title>peppa</title>
  <g id="Livello_2" data-name="Livello 2">
    <g id="Livello_1-2" data-name="Livello 1">
      <g>
        <path d="M296.86128,23.1148a6.74138,6.74138,0,0,1,1.374.1484V14.5347a6.73438,6.73438,0,0,1-1.374.1485c-4.2149,0-7.6328-3.9083-7.6328-8.7286A9.39778,9.39778,0,0,1,291.291,0H4.915A8.94728,8.94728,0,0,1,9.00679,7.7286c0,4.8203-3.418,8.728-7.63279,8.728A6.74076,6.74076,0,0,1,0,16.3082v8.7285a6.73377,6.73377,0,0,1,1.374-.1485c4.21479,0,7.63279,3.9077,7.63279,8.7285,0,4.8204-3.418,8.7281-7.63279,8.7281A6.73377,6.73377,0,0,1,0,42.1963v8.729a6.74076,6.74076,0,0,1,1.374-.1484c4.21479,0,7.63279,3.9077,7.63279,8.728S5.58879,68.233,1.374,68.233A6.73377,6.73377,0,0,1,0,68.0845v8.729a6.73373,6.73373,0,0,1,1.374-.1484c4.21479,0,7.63279,3.9077,7.63279,8.7285,0,4.8198-3.418,8.728-7.63279,8.728A6.73373,6.73373,0,0,1,0,93.9732v8.7285a6.73373,6.73373,0,0,1,1.374-.1484c4.21479,0,7.63279,3.9077,7.63279,8.7285,0,4.8203-3.418,8.728-7.63279,8.728A6.74076,6.74076,0,0,1,0,119.8614v8.7285a6.73373,6.73373,0,0,1,1.374-.1484c4.21479,0,7.63279,3.9077,7.63279,8.7285,0,4.8203-3.418,8.728-7.63279,8.728A6.74076,6.74076,0,0,1,0,145.7496v8.7285a6.73377,6.73377,0,0,1,1.374-.1485c4.21479,0,7.63279,3.9082,7.63279,8.7286a9.3976,9.3976,0,0,1-2.0625,5.9545h286.376a8.94674,8.94674,0,0,1-4.0918-7.7285c0-4.8203,3.4179-8.728,7.6328-8.728a6.74138,6.74138,0,0,1,1.374.1484v-8.7285a6.73438,6.73438,0,0,1-1.374.1485c-4.2149,0-7.6328-3.9078-7.6328-8.7286,0-4.8203,3.4179-8.728,7.6328-8.728a6.73438,6.73438,0,0,1,1.374.1485v-8.7291a6.73438,6.73438,0,0,1-1.374.1485c-4.2149,0-7.6328-3.9077-7.6328-8.728s3.4179-8.7281,7.6328-8.7281a6.73438,6.73438,0,0,1,1.374.1485v-8.729a6.74138,6.74138,0,0,1-1.374.1484c-4.2149,0-7.6328-3.9077-7.6328-8.7285,0-4.8198,3.4179-8.728,7.6328-8.728a6.73434,6.73434,0,0,1,1.374.1484V66.3111a6.73434,6.73434,0,0,1-1.374.1484c-4.2149,0-7.6328-3.9077-7.6328-8.7285,0-4.8203,3.4179-8.728,7.6328-8.728a6.73434,6.73434,0,0,1,1.374.1484V40.4229a6.73434,6.73434,0,0,1-1.374.1484c-4.2149,0-7.6328-3.9077-7.6328-8.7285C289.22848,27.0225,292.64638,23.1148,296.86128,23.1148Z" fill="#76fa5a"/>
        <path d="M296.86128,23.1148a6.74138,6.74138,0,0,1,1.374.1484V14.5347a6.73438,6.73438,0,0,1-1.374.1485c-4.2149,0-7.6328-3.9083-7.6328-8.7286A9.39778,9.39778,0,0,1,291.291,0H4.915A8.94728,8.94728,0,0,1,9.00679,7.7286c0,4.8203-3.418,8.728-7.63279,8.728A6.74076,6.74076,0,0,1,0,16.3082v8.7285a6.73377,6.73377,0,0,1,1.374-.1485c4.21479,0,7.63279,3.9077,7.63279,8.7285,0,4.8204-3.418,8.7281-7.63279,8.7281A6.73377,6.73377,0,0,1,0,42.1963v8.729a6.74076,6.74076,0,0,1,1.374-.1484c4.21479,0,7.63279,3.9077,7.63279,8.728S5.58879,68.233,1.374,68.233A6.73377,6.73377,0,0,1,0,68.0845v8.729a6.73373,6.73373,0,0,1,1.374-.1484c4.21479,0,7.63279,3.9077,7.63279,8.7285,0,4.8198-3.418,8.728-7.63279,8.728A6.73373,6.73373,0,0,1,0,93.9732v8.7285a6.73373,6.73373,0,0,1,1.374-.1484c4.21479,0,7.63279,3.9077,7.63279,8.7285,0,4.8203-3.418,8.728-7.63279,8.728A6.74076,6.74076,0,0,1,0,119.8614v8.7285a6.73373,6.73373,0,0,1,1.374-.1484c4.21479,0,7.63279,3.9077,7.63279,8.7285,0,4.8203-3.418,8.728-7.63279,8.728A6.74076,6.74076,0,0,1,0,145.7496v8.7285a6.73377,6.73377,0,0,1,1.374-.1485c4.21479,0,7.63279,3.9082,7.63279,8.7286a9.3976,9.3976,0,0,1-2.0625,5.9545h286.376a8.94674,8.94674,0,0,1-4.0918-7.7285c0-4.8203,3.4179-8.728,7.6328-8.728a6.74138,6.74138,0,0,1,1.374.1484v-8.7285a6.73438,6.73438,0,0,1-1.374.1485c-4.2149,0-7.6328-3.9078-7.6328-8.7286,0-4.8203,3.4179-8.728,7.6328-8.728a6.73438,6.73438,0,0,1,1.374.1485v-8.7291a6.73438,6.73438,0,0,1-1.374.1485c-4.2149,0-7.6328-3.9077-7.6328-8.728s3.4179-8.7281,7.6328-8.7281a6.73438,6.73438,0,0,1,1.374.1485v-8.729a6.74138,6.74138,0,0,1-1.374.1484c-4.2149,0-7.6328-3.9077-7.6328-8.7285,0-4.8198,3.4179-8.728,7.6328-8.728a6.73434,6.73434,0,0,1,1.374.1484V66.3111a6.73434,6.73434,0,0,1-1.374.1484c-4.2149,0-7.6328-3.9077-7.6328-8.7285,0-4.8203,3.4179-8.728,7.6328-8.728a6.73434,6.73434,0,0,1,1.374.1484V40.4229a6.73434,6.73434,0,0,1-1.374.1484c-4.2149,0-7.6328-3.9077-7.6328-8.7285C289.22848,27.0225,292.64638,23.1148,296.86128,23.1148Z" fill="none"/>
        <rect x="22.35347" y="22.80046" width="257" height="124" rx="61.99994" fill="#f2f2f2" stroke="#0023f5" stroke-miterlimit="10" stroke-width="0.75"/>
        <rect x="31.13979" y="28.86198" width="241.62393" height="111.95051" rx="55.9752" fill="#f2f2f2" stroke="#0023f5" stroke-miterlimit="10" stroke-width="0.75"/>
        <g>
          <path d="M57.50776,72.08952a23.182,23.182,0,0,1,3.36133.22265,12.03162,12.03162,0,0,1,2.84961.77637,7.19035,7.19035,0,0,1,2.24707,1.4209,5.99024,5.99024,0,0,1,1.42871,2.21387,8.587,8.587,0,0,1,.52051,3.11426v.03222a8.7209,8.7209,0,0,1-.52051,3.13086,6.1378,6.1378,0,0,1-1.42871,2.24707,7.23824,7.23824,0,0,1-2.25488,1.45313,11.93654,11.93654,0,0,1-2.86621.80175,22.62731,22.62731,0,0,1-3.38672.23047H48.22358v8.57422H41.03706V72.08952ZM60.5146,79.986v-.0332a2.16082,2.16082,0,0,0-.84278-1.97461,4.89195,4.89195,0,0,0-2.57714-.53613h-8.8711v5.03808h8.8711a4.88142,4.88142,0,0,0,2.57714-.53711A2.1387,2.1387,0,0,0,60.5146,79.986Z" fill="#0023f5"/>
          <path d="M77.34858,90.82292h16.833v5.48437H70.2939V72.08952H94.06636v5.46777H77.34858v3.96485H93.27339v5.07128H77.34858Z" fill="#0023f5"/>
          <path d="M113.29487,72.08952a23.182,23.182,0,0,1,3.36133.22265,12.03162,12.03162,0,0,1,2.84961.77637,7.19035,7.19035,0,0,1,2.24707,1.4209,5.99024,5.99024,0,0,1,1.42871,2.21387,8.587,8.587,0,0,1,.52051,3.11426v.03222a8.7209,8.7209,0,0,1-.52051,3.13086,6.1378,6.1378,0,0,1-1.42871,2.24707,7.23824,7.23824,0,0,1-2.25488,1.45313,11.93654,11.93654,0,0,1-2.86621.80175,22.62731,22.62731,0,0,1-3.38672.23047h-9.23438v8.57422H96.82417V72.08952Zm3.00684,7.89648v-.0332a2.16082,2.16082,0,0,0-.84278-1.97461,4.89195,4.89195,0,0,0-2.57714-.53613h-8.8711v5.03808h8.8711a4.88142,4.88142,0,0,0,2.57714-.53711A2.1387,2.1387,0,0,0,116.30171,79.986Z" fill="#0023f5"/>
          <path d="M142.55171,72.08952a23.18206,23.18206,0,0,1,3.36133.22265,12.03175,12.03175,0,0,1,2.84961.77637,7.19047,7.19047,0,0,1,2.24707,1.4209,5.99036,5.99036,0,0,1,1.42871,2.21387,8.58724,8.58724,0,0,1,.5205,3.11426v.03222a8.72112,8.72112,0,0,1-.5205,3.13086,6.13793,6.13793,0,0,1-1.42871,2.24707,7.23829,7.23829,0,0,1-2.25489,1.45313,11.93641,11.93641,0,0,1-2.86621.80175,22.62722,22.62722,0,0,1-3.38672.23047h-9.23437v8.57422H126.081V72.08952Zm3.00683,7.89648v-.0332a2.16084,2.16084,0,0,0-.84277-1.97461,4.892,4.892,0,0,0-2.57715-.53613h-8.87109v5.03808h8.87109a4.88146,4.88146,0,0,0,2.57715-.53711A2.13872,2.13872,0,0,0,145.55854,79.986Z" fill="#0023f5"/>
          <path d="M174.02143,96.30729l-2.18066-4.74121H159.13765L156.957,96.30729h-7.45019l11.86132-24.21777h8.52344l11.87793,24.21777Zm-12.53808-9.7959h7.99512L165.498,77.85514Z" fill="#0023f5"/>
          <path d="M209.12593,72.08952a23.18191,23.18191,0,0,1,3.36132.22265,12.03148,12.03148,0,0,1,2.84961.77637,7.19023,7.19023,0,0,1,2.24707,1.4209,5.99026,5.99026,0,0,1,1.42872,2.21387,8.58724,8.58724,0,0,1,.5205,3.11426v.03222a8.72112,8.72112,0,0,1-.5205,3.13086,6.13782,6.13782,0,0,1-1.42872,2.24707,7.23812,7.23812,0,0,1-2.25488,1.45313,11.93641,11.93641,0,0,1-2.86621.80175,22.62722,22.62722,0,0,1-3.38672.23047h-9.23437v8.57422h-7.18653V72.08952Zm3.00683,7.89648v-.0332a2.16084,2.16084,0,0,0-.84277-1.97461,4.892,4.892,0,0,0-2.57715-.53613h-8.87109v5.03808h8.87109A4.88146,4.88146,0,0,0,211.29,81.943,2.13872,2.13872,0,0,0,212.13276,79.986Z" fill="#0023f5"/>
          <path d="M221.91206,72.08952h7.18652V96.30729h-7.18652Z" fill="#0023f5"/>
          <path d="M245.60151,82.38151H260.915V96.30729h-5.93067l-.0332-3.07226q-2.98974,3.46875-9.43262,3.46875-6.59179,0-10.24218-3.2295-3.6504-3.23-3.65039-9.12695v-.13281q0-5.9956,3.92285-9.25879,3.92432-3.26222,11.09277-3.2627a18.79148,18.79148,0,0,1,9.54883,2.19727,9.14574,9.14574,0,0,1,4.60937,6.376h-7.43457q-1.3872-3.10548-6.40918-3.10547-7.92919,0-7.92968,7.03711v.14941a9.03053,9.03053,0,0,0,.41308,2.85742,5.47,5.47,0,0,0,3.75782,3.61817,12.16922,12.16922,0,0,0,3.69238.49511q6.42627,0,7.35156-4.36132h-8.63965Z" fill="#0023f5"/>
        </g>
        <polygon points="29.786 20.539 25.737 22.571 25.966 18.046 22.782 14.822 27.156 13.642 29.237 9.618 31.712 13.413 36.183 14.15 33.337 17.676 34.019 22.154 29.786 20.539" fill="#0023f5"/>
        <polygon points="29.786 157.539 25.737 159.571 25.966 155.046 22.782 151.822 27.156 150.642 29.237 146.618 31.712 150.413 36.183 151.15 33.337 154.676 34.019 159.154 29.786 157.539" fill="#0023f5"/>
        <polygon points="272.786 157.539 268.737 159.571 268.966 155.046 265.782 151.822 270.156 150.642 272.237 146.618 274.712 150.413 279.183 151.15 276.337 154.676 277.019 159.154 272.786 157.539" fill="#0023f5"/>
        <polygon points="272.786 20.539 268.737 22.571 268.966 18.046 265.782 14.822 270.156 13.642 272.237 9.618 274.712 13.413 279.183 14.15 276.337 17.676 277.019 22.154 272.786 20.539" fill="#0023f5"/>
      </g>
    </g>
  </g>
</svg>
