<svg xmlns="http://www.w3.org/2000/svg" viewBox="0 0 296.60703 171.3291">
  <title>spiderman</title>
  <g id="Livello_2" data-name="Livello 2">
    <g id="Livello_1-2" data-name="Livello 1">
      <g>
        <path d="M291.38135,35.333c2.88633,0,5.22568-2.836,5.22568-6.333,0-3.4981-2.33935-6.334-5.22568-6.334h-5.0477V12.667h5.0477c2.88633,0,5.22568-2.836,5.22568-6.333,0-3.4981-2.33935-6.334-5.22568-6.334H5.22567C2.33934,0,0,2.8359,0,6.334c0,3.497,2.33934,6.333,5.22567,6.333H9.13424v9.999H5.22567C2.33934,22.666,0,25.5019,0,29c0,3.497,2.33934,6.333,5.22567,6.333H9.13424v9.999H5.22567C2.33934,45.332,0,48.1679,0,51.666c0,3.4971,2.33934,6.333,5.22567,6.333H9.13424v9.999H5.22567C2.33934,67.998,0,70.834,0,74.332c0,3.4971,2.33934,6.333,5.22567,6.333H9.13424v9.999H5.22567C2.33934,90.664,0,93.5,0,96.998c0,3.4971,2.33934,6.333,5.22567,6.333H9.13424v9.999H5.22567C2.33934,113.33,0,116.166,0,119.664c0,3.4971,2.33934,6.333,5.22567,6.333H9.13424v9.9991H5.22567C2.33934,135.9961,0,138.832,0,142.33c0,3.4971,2.33934,6.3331,5.22567,6.3331H9.13424v9.999H5.22567C2.33934,158.6621,0,161.498,0,164.9961c0,3.497,2.33934,6.333,5.22567,6.333H291.38135c2.88633,0,5.22568-2.836,5.22568-6.333,0-3.4981-2.33935-6.334-5.22568-6.334h-5.0477v-9.999h5.0477c2.88633,0,5.22568-2.836,5.22568-6.3331,0-3.498-2.33935-6.3339-5.22568-6.3339h-5.0477V125.997h5.0477c2.88633,0,5.22568-2.8359,5.22568-6.333,0-3.498-2.33935-6.334-5.22568-6.334h-5.0477v-9.999h5.0477c2.88633,0,5.22568-2.8359,5.22568-6.333,0-3.498-2.33935-6.334-5.22568-6.334h-5.0477V80.665h5.0477c2.88633,0,5.22568-2.8359,5.22568-6.333,0-3.498-2.33935-6.334-5.22568-6.334h-5.0477V57.999h5.0477c2.88633,0,5.22568-2.8359,5.22568-6.333,0-3.4981-2.33935-6.334-5.22568-6.334h-5.0477V35.333Z" fill="#0023f5"/>
        <path d="M257.43845,139.999c0,6.0752-4.21174,11-9.40731,11H51.21014c-5.19557,0-9.40731-4.9248-9.40731-11v-110c0-6.0752,4.21174-11,9.40731-11h196.821c5.19557,0,9.40731,4.9248,9.40731,11Z" fill="none" stroke="#f2f2f2" stroke-miterlimit="10"/>
        <path d="M271.63425,139.999a10.82722,10.82722,0,0,1-10.64592,11H38.25294a10.82721,10.82721,0,0,1-10.64591-11v-110a10.82721,10.82721,0,0,1,10.64591-11H260.98833a10.82722,10.82722,0,0,1,10.64592,11Z" fill="none" stroke="#f2f2f2" stroke-miterlimit="10"/>
        <g>
          <path d="M79.6741,80.80111q-10.04883,0-15.3125-3.16993-5.26318-3.16992-5.59863-10.085h10.001a5.27234,5.27234,0,0,0,1.627,3.50489,8.09764,8.09764,0,0,0,3.81641,1.90234,26.678,26.678,0,0,0,5.89746.55078,17.95228,17.95228,0,0,0,6.59179-.874,2.85739,2.85739,0,0,0,2.02149-2.69141,2.19219,2.19219,0,0,0-1.06445-1.99805,11.21161,11.21161,0,0,0-3.81641-1.08886q-.86133-.14356-6.77149-.7168a81.581,81.581,0,0,1-8.85156-1.2207A12.18182,12.18182,0,0,1,62.053,61.91146a8.23931,8.23931,0,0,1-2.11816-6.08887v-.02344a9.22389,9.22389,0,0,1,4.72558-8.31445Q69.386,44.577,78.1907,44.57747q9.56983,0,14.54688,3.07422A11.09913,11.09913,0,0,1,98.097,56.99447H88.14383a4.80369,4.80369,0,0,0-2.85938-3.959,17.95509,17.95509,0,0,0-7.40429-1.18457q-7.48976,0-7.48926,3.0625a2.06478,2.06478,0,0,0,1.0166,1.88965,11.39482,11.39482,0,0,0,3.793,1.05273q.90821.14357,6.8418.73047,5.93408.58594,8.94922,1.208a11.22349,11.22349,0,0,1,6.06445,3.01465,8.53043,8.53043,0,0,1,2.09375,6.125v.04785a9.62509,9.62509,0,0,1-5.12012,8.8291Q88.91,80.80063,79.6741,80.80111Z" fill="#f2f2f2"/>
          <path d="M126.3782,45.15169a33.44368,33.44368,0,0,1,4.86817.32324,17.39619,17.39619,0,0,1,4.12793,1.124,10.45859,10.45859,0,0,1,3.2539,2.05762,8.68913,8.68913,0,0,1,2.06934,3.20605,12.47682,12.47682,0,0,1,.75293,4.51074v.04688a12.66452,12.66452,0,0,1-.75293,4.53418,8.87417,8.87417,0,0,1-2.06934,3.2539,10.48229,10.48229,0,0,1-3.2666,2.10547,17.25586,17.25586,0,0,1-4.15136,1.16113,32.84759,32.84759,0,0,1-4.9043.334h-13.375v12.418H102.52371V45.15169Zm4.35352,11.43653v-.04786A3.127,3.127,0,0,0,129.512,53.681a7.08459,7.08459,0,0,0-3.73242-.77734H112.93094V60.2015h12.84863a7.07415,7.07415,0,0,0,3.73242-.77832A3.09748,3.09748,0,0,0,130.73172,56.58822Z" fill="#f2f2f2"/>
          <path d="M144.89578,45.15169H155.303v35.0752H144.89578Z" fill="#f2f2f2"/>
          <path d="M178.72684,45.15169a35.64388,35.64388,0,0,1,9.06738,1.05274,20.05663,20.05663,0,0,1,6.85547,3.1582,13.60441,13.60441,0,0,1,4.36621,5.41895,18.41632,18.41632,0,0,1,1.50684,7.69238v.43066a16.8676,16.8676,0,0,1-2.667,9.72559,15.46877,15.46877,0,0,1-7.48925,5.75488,32.6872,32.6872,0,0,1-11.63965,1.8418H160.16043V45.15169ZM189.804,62.88118v-.38281q0-4.71387-2.67969-6.96289-2.6792-2.24853-8.56445-2.249h-7.99219V72.09212h7.99219q5.88573,0,8.56445-2.249Q189.805,67.59457,189.804,62.88118Z" fill="#f2f2f2"/>
          <path d="M214.44754,72.28353H238.8284v7.94336H204.23172V45.15169h34.42871v7.91895H214.44754v5.74219H237.512v7.3457H214.44754Z" fill="#f2f2f2"/>
          <path d="M92.98856,104.37825a7.68145,7.68145,0,0,1,4.25879,2.8711,9.00313,9.00313,0,0,1,1.50683,5.40723v9.57031H88.37137v-9.11524a4.26518,4.26518,0,0,0-1.18457-3.3623,5.54736,5.54736,0,0,0-3.7207-1.04H70.33035v13.51758H59.92313V87.15169H84.37527a35.26124,35.26124,0,0,1,4.50977.2627,17.93327,17.93327,0,0,1,3.82813.92187,9.49667,9.49667,0,0,1,3.02734,1.72266,7.38979,7.38979,0,0,1,1.92578,2.72754,9.84012,9.84012,0,0,1,.70508,3.86426,8.21658,8.21658,0,0,1-1.43555,5.03613A7.48322,7.48322,0,0,1,92.98856,104.37825Zm-9.666-3.01464a6.58909,6.58909,0,0,0,3.40918-.69336,2.74973,2.74973,0,0,0,1.1123-2.53711,2.66145,2.66145,0,0,0-1.17187-2.54785,7.71164,7.71164,0,0,0-3.63672-.65723H70.33035v6.43555Z" fill="#f2f2f2"/>
          <path d="M137.012,87.15169h11.17286v35.0752H138.136V101.50716L125.4075,122.77767l-12.7041-21.29492v20.74414h-9.666V87.15169h11.00586l11.48438,19.30762Z" fill="#f2f2f2"/>
          <path d="M186.15555,122.22689l-3.1582-6.86719H164.59793l-3.1582,6.86719h-10.79l17.17773-35.0752h12.34571l17.20312,35.0752Zm-18.16016-14.1875h11.58008l-5.76562-12.53711Z" fill="#f2f2f2"/>
          <path d="M228.57645,87.15169h9.71386v35.0752H227.71512L209.57938,98.99447v23.23242h-9.71387V87.15169H211.3743l17.20215,22.03614Z" fill="#f2f2f2"/>
        </g>
        <g>
          <polygon points="65.106 142.352 60.932 144.446 61.168 139.782 57.885 136.459 62.394 135.242 64.54 131.094 67.091 135.006 71.7 135.765 68.766 139.4 69.469 144.017 65.106 142.352" fill="#76fa5a"/>
          <polygon points="89.01 142.352 84.835 144.446 85.072 139.782 81.789 136.459 86.298 135.242 88.444 131.094 90.995 135.006 95.603 135.765 92.67 139.4 93.373 144.017 89.01 142.352" fill="#76fa5a"/>
          <polygon points="112.913 142.352 108.739 144.446 108.975 139.782 105.693 136.459 110.201 135.242 112.348 131.094 114.899 135.006 119.507 135.765 116.574 139.4 117.276 144.017 112.913 142.352" fill="#76fa5a"/>
          <polygon points="136.817 142.352 132.643 144.446 132.879 139.782 129.596 136.459 134.105 135.242 136.252 131.094 138.802 135.006 143.411 135.765 140.478 139.4 141.18 144.017 136.817 142.352" fill="#76fa5a"/>
          <polygon points="160.721 142.352 156.547 144.446 156.783 139.782 153.5 136.459 158.009 135.242 160.155 131.094 162.706 135.006 167.314 135.765 164.381 139.4 165.084 144.017 160.721 142.352" fill="#76fa5a"/>
          <polygon points="184.625 142.352 180.45 144.446 180.686 139.782 177.404 136.459 181.913 135.242 184.059 131.094 186.61 135.006 191.218 135.765 188.285 139.4 188.987 144.017 184.625 142.352" fill="#76fa5a"/>
          <polygon points="208.528 142.352 204.354 144.446 204.59 139.782 201.308 136.459 205.817 135.242 207.963 131.094 210.514 135.006 215.122 135.765 212.189 139.4 212.891 144.017 208.528 142.352" fill="#76fa5a"/>
          <polygon points="232.432 142.352 228.258 144.446 228.494 139.782 225.211 136.459 229.72 135.242 231.866 131.094 234.418 135.006 239.026 135.765 236.093 139.4 236.795 144.017 232.432 142.352" fill="#76fa5a"/>
        </g>
      </g>
      <g>
        <polygon points="64.954 38.352 60.78 40.446 61.016 35.782 57.733 32.459 62.242 31.242 64.389 27.094 66.939 31.006 71.548 31.765 68.615 35.4 69.317 40.017 64.954 38.352" fill="#76fa5a"/>
        <polygon points="88.858 38.352 84.684 40.446 84.92 35.782 81.637 32.459 86.146 31.242 88.292 27.094 90.843 31.006 95.451 31.765 92.518 35.4 93.221 40.017 88.858 38.352" fill="#76fa5a"/>
        <polygon points="112.761 38.352 108.587 40.446 108.823 35.782 105.541 32.459 110.05 31.242 112.196 27.094 114.747 31.006 119.355 31.765 116.422 35.4 117.124 40.017 112.761 38.352" fill="#76fa5a"/>
        <polygon points="136.665 38.352 132.491 40.446 132.727 35.782 129.445 32.459 133.953 31.242 136.1 27.094 138.651 31.006 143.259 31.765 140.326 35.4 141.028 40.017 136.665 38.352" fill="#76fa5a"/>
        <polygon points="160.569 38.352 156.395 40.446 156.631 35.782 153.348 32.459 157.857 31.242 160.003 27.094 162.554 31.006 167.162 31.765 164.23 35.4 164.932 40.017 160.569 38.352" fill="#76fa5a"/>
        <polygon points="184.473 38.352 180.298 40.446 180.535 35.782 177.252 32.459 181.761 31.242 183.907 27.094 186.458 31.006 191.066 31.765 188.133 35.4 188.836 40.017 184.473 38.352" fill="#76fa5a"/>
        <polygon points="208.376 38.352 204.202 40.446 204.438 35.782 201.156 32.459 205.665 31.242 207.811 27.094 210.362 31.006 214.97 31.765 212.037 35.4 212.739 40.017 208.376 38.352" fill="#76fa5a"/>
        <polygon points="232.28 38.352 228.106 40.446 228.342 35.782 225.06 32.459 229.568 31.242 231.714 27.094 234.266 31.006 238.874 31.765 235.941 35.4 236.643 40.017 232.28 38.352" fill="#76fa5a"/>
      </g>
    </g>
  </g>
</svg>
