<svg xmlns="http://www.w3.org/2000/svg" viewBox="0 0 263.2771 263.28938">
  <title>toarchive_1</title>
  <g id="Livello_2" data-name="Livello 2">
    <g id="Modalità_Isolamento" data-name="Modalità Isolamento">
      <g>
        <polygon points="223.918 79.045 184.289 39.416 130.154 24.911 76.02 39.416 36.391 79.045 21.886 133.18 36.391 187.314 76.02 226.943 130.154 241.448 184.289 226.943 223.918 187.314 238.423 133.18 223.918 79.045" fill="#f2f2f2" stroke="#0023f5" stroke-miterlimit="10" stroke-width="0.75"/>
        <path d="M166.76435.54507,143.724,15.57974a22.69811,22.69811,0,0,1-25.05206-.16138L96.50818.54507,83.87282,24.84746a22.69813,22.69813,0,0,1-21.2947,12.19806L35.66455,35.67315,37.261,62.13892a22.69809,22.69809,0,0,1-12.11269,21.467L.53647,96.51678l14.72487,22.97264a22.69813,22.69813,0,0,1-.04565,24.56835L.53647,166.773l22.93032,15.97117a22.69814,22.69814,0,0,1,9.63259,16.57624l2.56517,28.29621,26.52762-1.80876a22.69812,22.69812,0,0,1,21.76311,12.33072l12.5529,24.60613,22.27051-14.76048a22.69812,22.69812,0,0,1,24.83586-.1592l23.1498,14.91968,12.5673-24.61316a22.69812,22.69812,0,0,1,21.76013-12.32364l26.5162,1.80871-1.58785-26.96168a22.69812,22.69812,0,0,1,12.41341-21.58871L262.73606,166.773l-14.67252-22.72156a22.69811,22.69811,0,0,1-.04561-24.55554l14.71813-22.97907L238.13134,83.6039A22.69812,22.69812,0,0,1,226.02176,62.148L227.608,35.67315l-26.90223,1.37234a22.69811,22.69811,0,0,1-21.29148-12.191Z" fill="#f2f2f2" stroke="#0023f5" stroke-miterlimit="10" stroke-width="0.75"/>
        <g>
          <path d="M27.12615,139.62272l-3.376,1.12842-.82129-2.459,3.375-1.12842-.9414-2.82031q-1.11036-3.32081,2.8916-4.65674l2.97363-.99365.81641,2.44531-2.30664.77051a1.77763,1.77763,0,0,0-1.08106.73925,1.49257,1.49257,0,0,0,.00293,1.165l.77149,2.30664,3.88965-1.2998.82129,2.459-3.88965,1.29981,3.93164,11.76758-3.126,1.04492Zm7.43848-8.05957-1.07227-3.21,3.38965-1.13281,1.07227,3.21Zm5.73242,16.74121-4.75293-14.227,3.13867-1.04931,4.75391,14.22754Z" fill="#0023f5"/>
          <path d="M53.36443,127.737a9.88833,9.88833,0,0,1,6.75293-.26416,6.38493,6.38493,0,0,1,3.79688,4.19873l2.62793,7.86426-3.14063,1.04883L60.8947,133.0822a4.41146,4.41146,0,0,0-2.53808-2.88184,7.15721,7.15721,0,0,0-4.87988.27881,11.17431,11.17431,0,0,0-2.959,1.45215,6.41034,6.41034,0,0,0-1.831,1.89355,5.29933,5.29933,0,0,0-.73438,2.12207,5.09018,5.09018,0,0,0,.24414,2.21192l2.25586,6.75195L47.299,145.96452,42.54607,131.738l3.05664-1.02149,1.00684,2.96875a7.52057,7.52057,0,0,1,2.27441-3.45507A12.38881,12.38881,0,0,1,53.36443,127.737Z" fill="#0023f5"/>
          <path d="M80.591,112.20036l3.125-1.04443,6.80567,20.36767-3.042,1.0166-.9336-2.74658a7.98754,7.98754,0,0,1-2.57324,3.39258,15.2173,15.2173,0,0,1-4.83887,2.52832q-4.66845,1.55933-7.80957.38525a7.64414,7.64414,0,0,1-3.63965-10.91552q1.80909-2.83668,6.51954-4.41016a16.081,16.081,0,0,1,5.23339-.92969,8.44225,8.44225,0,0,1,4.01661.92774Zm4.4834,13.28174-.03222-.09668a4.48747,4.48747,0,0,0-3.18262-3.00684,10.39278,10.39278,0,0,0-6.126.52539q-3.69434,1.23488-4.99316,3.17481a5.10455,5.10455,0,0,0,2.48144,7.44873q2.2002.78588,5.86914-.43945a10.37589,10.37589,0,0,0,5.22461-3.29053A4.50279,4.50279,0,0,0,85.07439,125.4821Z" fill="#0023f5"/>
          <path d="M99.88592,115.31315l-3.376,1.12793-.82129-2.459,3.375-1.12793-.94141-2.82031q-1.11035-3.32081,2.89161-4.65723l2.97363-.99316.8164,2.44482-2.30664.77051a1.77221,1.77221,0,0,0-1.08007.73974,1.48387,1.48387,0,0,0,.00293,1.165l.7705,2.30616,3.89063-1.29981.82129,2.459-3.89063,1.2998,3.93262,11.76807-3.12695,1.04443Z" fill="#0023f5"/>
          <path d="M117.93181,106.55046l2.18067-.72852.84961,2.542-2.36133.78907a8.91784,8.91784,0,0,0-2.69531,1.3872,5.14249,5.14249,0,0,0-2.10742,3.97852,6.20459,6.20459,0,0,0,.333,2.24365l2.06543,6.18262-3.15332,1.05371-4.75293-14.22656,3.05664-1.02149,1.14551,3.38575a6.47453,6.47453,0,0,1,1.72852-3.334A8.81831,8.81831,0,0,1,117.93181,106.55046Z" fill="#0023f5"/>
          <path d="M130.75017,101.88151q4.82081-1.6106,7.48536-.87109a5.17608,5.17608,0,0,1,3.62988,3.62891l2.9248,8.75292-3.02929,1.01172-.97461-2.87109a8.16852,8.16852,0,0,1-2.70508,3.48291,16.001,16.001,0,0,1-5.11035,2.71094,11.30814,11.30814,0,0,1-5.76856.69189,3.82281,3.82281,0,0,1-2.99707-2.70508,3.649,3.649,0,0,1,.34082-3.28027,9.379,9.379,0,0,1,3.28711-2.82812,67.20038,67.20038,0,0,1,10.61328-4.70411,3.05127,3.05127,0,0,0-1.25195-1.27295,4.395,4.395,0,0,0-2.20215-.353,12.95,12.95,0,0,0-3.45312.73681,11.80647,11.80647,0,0,0-4.30371,2.21045,2.94193,2.94193,0,0,0-1.002,2.71289l-3.19531,1.06739a4.86853,4.86853,0,0,1,1.3125-4.624A15.695,15.695,0,0,1,130.75017,101.88151Zm2.03809,13.35791a14.87116,14.87116,0,0,0,3.9873-1.98095,7.76632,7.76632,0,0,0,2.43555-2.62793,3.37791,3.37791,0,0,0,.30371-2.71924L139.14275,106.8a67.66344,67.66344,0,0,0-9.0625,4.03174,7.753,7.753,0,0,0-2.36035,1.83105,1.89514,1.89514,0,0,0-.35156,1.83887Q128.13445,116.79411,132.78826,115.23942Z" fill="#0023f5"/>
          <path d="M167.9572,89.45085a8.64662,8.64662,0,0,1,6.29786-.10449,6.654,6.654,0,0,1,3.63183,4.26123l2.62207,7.85009-3.125,1.04444-2.52148-7.54444a4.65607,4.65607,0,0,0-2.35156-2.90527,5.76707,5.76707,0,0,0-4.32911.10254,6.99627,6.99627,0,0,0-4.0166,2.86377,4.72734,4.72734,0,0,0-.39355,4.09326l2.38574,7.14063-3.125,1.04492-2.52148-7.54492a4.66868,4.66868,0,0,0-2.34571-2.90723,5.733,5.733,0,0,0-4.32226.10059,6.84616,6.84616,0,0,0-4.00879,2.93017,4.95606,4.95606,0,0,0-.37305,4.20166l2.33106,6.97461-3.1543,1.05371L143.884,97.87956l3.05664-1.02148.94727,2.78808a7.06922,7.06922,0,0,1,1.99707-3.22363,10.21583,10.21583,0,0,1,3.90137-2.23731,9.71228,9.71228,0,0,1,4.53125-.5332,5.92782,5.92782,0,0,1,3.38086,1.65772,7.008,7.008,0,0,1,2.041-3.439A10.919,10.919,0,0,1,167.9572,89.45085Z" fill="#0023f5"/>
          <path d="M199.20135,89.68327l3.21-1.07227a5.68717,5.68717,0,0,1-1.667,4.9043,15.9291,15.9291,0,0,1-6.73925,3.81934q-5.26612,1.75928-8.53711.70556a7.52316,7.52316,0,0,1-3.69434-11.05908q1.98047-2.80884,7.19043-4.54931,5.001-1.67065,8.22852-.67969a6.56644,6.56644,0,0,1,4.41015,4.53418l.23731.70849-17.47754,5.83936a4.99653,4.99653,0,0,0,1.11035,1.75293,4.39662,4.39662,0,0,0,1.752,1.03613,6.421,6.421,0,0,0,2.59473.20654,15.81815,15.81815,0,0,0,3.49414-.79687Q199.43962,92.98649,199.20135,89.68327Zm-9.48926-5.01465q-6.41895,2.14453-5.93555,6.09082L197.93474,86.03a3.94914,3.94914,0,0,0-2.9082-2.09473A11.09777,11.09777,0,0,0,189.71209,84.66862Z" fill="#0023f5"/>
          <path d="M216.23455,89.90788q-10.04444,3.35595-12.21192-1.83545l3.13965-1.04932q1.41943,2.95459,8.56153.56885,6.04394-2.01929,5.291-4.27a1.26556,1.26556,0,0,0-.96191-.89111,6.27529,6.27529,0,0,0-2.41992.19873q-.85254.17579-4.21192,1.07519-3.36034.8987-5.01367,1.17286a7.08742,7.08742,0,0,1-3.57617-.09424,3.15109,3.15109,0,0,1-1.8457-2.12549,3.74462,3.74462,0,0,1,1.15136-4.04492,15.44062,15.44062,0,0,1,6.02832-3.26465,17.37,17.37,0,0,1,7.65332-1.15186,4.63123,4.63123,0,0,1,3.93262,2.8252l-3.15332,1.05371q-1.3125-2.63452-7.87012-.44385-5.32178,1.77759-4.68164,3.69532a1.24728,1.24728,0,0,0,.95117.85595,6.18232,6.18232,0,0,0,2.39942-.16845q.939-.19044,4.332-1.10743,3.39258-.917,4.92676-1.18261a7.13573,7.13573,0,0,1,3.53613.09277,3.1513,3.1513,0,0,1,1.89355,2.15478,3.71667,3.71667,0,0,1-.26367,3.09229,7.569,7.569,0,0,1-2.71875,2.66113A22.99562,22.99562,0,0,1,216.23455,89.90788Z" fill="#0023f5"/>
          <path d="M83.85174,142.50749l-1.07227-3.209,3.4043-1.13769,1.07226,3.21Zm5.73242,16.7417-4.75293-14.22656,3.15332-1.05371,4.7539,14.22656Z" fill="#0023f5"/>
          <path d="M102.65154,138.68229a9.882,9.882,0,0,1,6.75391-.26367,6.383,6.383,0,0,1,3.79687,4.19824l2.627,7.86329-3.13965,1.0498-2.50684-7.50293a4.41283,4.41283,0,0,0-2.53809-2.88135,7.15721,7.15721,0,0,0-4.87988.27881,11.145,11.145,0,0,0-2.959,1.45215,6.3981,6.3981,0,0,0-1.83106,1.89355,5.29941,5.29941,0,0,0-.73437,2.12207,5.07548,5.07548,0,0,0,.24414,2.21192l2.25586,6.75195-3.15332,1.05371-4.75391-14.22656,3.05664-1.02148,1.00781,2.96875a7.51336,7.51336,0,0,1,2.27344-3.45508A12.38268,12.38268,0,0,1,102.65154,138.68229Z" fill="#0023f5"/>
          <path d="M136.05779,143.72184l-2.834.94678a4.79221,4.79221,0,0,1-3.45508.12793,3.851,3.851,0,0,1-1.95215-2.49072l-2.68262-8.03027-3.34863,1.11865-.81738-2.44531,3.34863-1.11866-1.38379-4.14062,2.458-3.04492,2.05176,6.14111,3.8623-1.29053.81738,2.44531-3.86328,1.29053,2.5166,7.53028a2.04416,2.04416,0,0,0,.87207,1.24511,2.18878,2.18878,0,0,0,1.64844-.07959l1.94531-.6499Z" fill="#0023f5"/>
          <path d="M144.90154,124.56608a9.88493,9.88493,0,0,1,6.75391-.26367,6.38275,6.38275,0,0,1,3.79687,4.19873l2.627,7.86328-3.13965,1.04932-2.50684-7.50293a4.41283,4.41283,0,0,0-2.53809-2.88135,7.15721,7.15721,0,0,0-4.87988.27881,11.14467,11.14467,0,0,0-2.959,1.45215,6.3981,6.3981,0,0,0-1.83106,1.89355,5.29941,5.29941,0,0,0-.73437,2.12207,5.07548,5.07548,0,0,0,.24414,2.21192l2.25586,6.752-3.15332,1.05371-6.80567-20.36816,3.1543-1.05371,3.00781,9.00293a7.64289,7.64289,0,0,1,2.29492-3.36866A12.42522,12.42522,0,0,1,144.90154,124.56608Z" fill="#0023f5"/>
          <path d="M176.757,124.59489l3.21-1.07226a5.68817,5.68817,0,0,1-1.666,4.90478,15.95529,15.95529,0,0,1-6.74023,3.81934q-5.26611,1.75928-8.53613.70508a7.523,7.523,0,0,1-3.69531-11.05958q1.98046-2.80811,7.19042-4.54882,5.00245-1.67139,8.2295-.68018a6.57083,6.57083,0,0,1,4.41015,4.53467l.23633.7085-17.47754,5.83935a4.98984,4.98984,0,0,0,1.11035,1.75244,4.39971,4.39971,0,0,0,1.752,1.03662,6.4322,6.4322,0,0,0,2.59472.20606,15.75546,15.75546,0,0,0,3.49317-.79639Q176.99725,127.89737,176.757,124.59489Zm-9.49023-5.01514q-6.4175,2.14453-5.9336,6.09131l14.15723-4.73a3.94739,3.94739,0,0,0-2.90821-2.09424A11.10756,11.10756,0,0,0,167.26678,119.57975Z" fill="#0023f5"/>
          <path d="M79.16424,190.14323l-5.21-4.26709-15.62989,5.22217-1.61133,6.54687-3.65429,1.22071,6.1709-24.70313L63.176,172.8444l19.79493,16.02735Zm-20.05469-2.28808,12.26855-4.09864-9.39062-7.67383Z" fill="#0023f5"/>
          <path d="M103.02068,170.48112a4.81291,4.81291,0,0,1,3.17578.90821,5.8698,5.8698,0,0,1,1.9541,2.93847l1.84278,5.51563-3.34668,1.11816-1.77832-5.32129a3.64072,3.64072,0,0,0-2.06641-2.46,5.84167,5.84167,0,0,0-3.8418.26465l-13.47656,4.502,3.03125,9.07227-3.3623,1.124-6.80469-20.36816,16.18555-5.40821a25.6,25.6,0,0,1,2.79-.77734,11.91872,11.91872,0,0,1,2.45312-.26367,5.8673,5.8673,0,0,1,2.11719.35058,4.27519,4.27519,0,0,1,1.63281,1.14551,5.61648,5.61648,0,0,1,1.13477,2.03028A4.625,4.625,0,0,1,103.02068,170.48112Zm-5.05859.30078a6.72631,6.72631,0,0,0,3.05469-1.76953,2.602,2.602,0,0,0,.332-2.65234,3.123,3.123,0,0,0-.66016-1.16895,2.37381,2.37381,0,0,0-.95117-.63183,3.365,3.365,0,0,0-1.28418-.14258,8.90816,8.90816,0,0,0-1.53809.228q-.78662.18529-1.84179.53857l-12.46289,4.16406,1.97265,5.9043Z" fill="#0023f5"/>
          <path d="M127.25408,174.46257a25.25974,25.25974,0,0,1-6.65625,1.36621,12.90167,12.90167,0,0,1-5.22949-.67676,9.61855,9.61855,0,0,1-3.707-2.45312,11.50431,11.50431,0,0,1-2.85059-8.53028,9.598,9.598,0,0,1,1.49512-4.1914,12.89861,12.89861,0,0,1,3.78222-3.68067,25.49437,25.49437,0,0,1,6.14258-2.90137q6.25343-2.08885,10.5166-1.06591a8.59785,8.59785,0,0,1,6.07911,4.83447l-3.4043,1.13721a6.17113,6.17113,0,0,0-4.4209-3.10987q-3.09082-.65039-7.82812.93213a20.20006,20.20006,0,0,0-4.84571,2.27539,9.32624,9.32624,0,0,0-2.86328,2.80225,7.13706,7.13706,0,0,0-1.05273,3.06933,8.005,8.005,0,0,0,.42187,3.27247,8.13414,8.13414,0,0,0,1.63086,2.8916,7.15161,7.15161,0,0,0,2.68555,1.84424,9.21418,9.21418,0,0,0,3.96289.5371,20.10977,20.10977,0,0,0,5.24023-1.09472,21.59066,21.59066,0,0,0,4.36035-1.95069,10.06106,10.06106,0,0,0,2.76465-2.33691,6.75724,6.75724,0,0,0,1.27442-2.542,6.03364,6.03364,0,0,0,.0205-2.68653l3.4043-1.1372a8.51953,8.51953,0,0,1-1.708,7.76025Q133.68572,172.31413,127.25408,174.46257Z" fill="#0023f5"/>
          <path d="M137.33806,148.06559l3.36231-1.12353,2.86426,8.57227,17.92285-5.9878-2.86426-8.57226,3.376-1.12793,6.80566,20.36767-3.376,1.12793-3.02246-9.04443-17.92285,5.98779,3.02246,9.04492-3.3623,1.12305Z" fill="#0023f5"/>
          <path d="M166.20916,138.4196l3.3623-1.12305,6.80469,20.36719-3.3623,1.124Z" fill="#0023f5"/>
          <path d="M197.10857,128.09636l3.709-1.23975-5.74024,24.55908-3.96,1.32324-19.35058-16.17578,3.82031-1.27685,16.67676,14.08838Z" fill="#0023f5"/>
          <path d="M212.2199,142.63054l19.54785-6.53125.91895,2.751-22.88282,7.64551-6.80468-20.36816,22.77148-7.60791.91406,2.73681-19.43652,6.49414,1.9541,5.84912,18.53321-6.19238.91015,2.72315-18.5332,6.19238Z" fill="#0023f5"/>
        </g>
      </g>
    </g>
  </g>
</svg>
